<?xml version="1.0" encoding="UTF-8"?>
<!DOCTYPE svg PUBLIC "-//W3C//DTD SVG 1.1//EN" "http://www.w3.org/Graphics/SVG/1.1/DTD/svg11.dtd">
<!-- Creator: CorelDRAW 2020 (64-Bit Evaluation Version) -->
<svg xmlns="http://www.w3.org/2000/svg" xml:space="preserve" width="41.3576mm" height="51.6306mm" version="1.1" style="shape-rendering:geometricPrecision; text-rendering:geometricPrecision; image-rendering:optimizeQuality; fill-rule:evenodd; clip-rule:evenodd"
viewBox="0 0 1239.85 1547.82"
 xmlns:xlink="http://www.w3.org/1999/xlink"
 xmlns:xodm="http://www.corel.com/coreldraw/odm/2003">
 <defs>
  <style type="text/css">
   <![CDATA[
    .fil0 {fill:#039BE5}
    .fil1 {fill:#FFEE00}
   ]]>
  </style>
 </defs>
 <g id="Layer_x0020_1">
  <metadata id="CorelCorpID_0Corel-Layer"/>
  <g id="_1820357841408">
   <ellipse class="fil0" cx="619.93" cy="605.71" rx="619.93" ry="605.71"/>
   <polygon class="fil1" points="619.04,21.59 638.75,62.74 658.47,103.89 638.75,145.03 619.04,186.18 599.32,145.03 579.61,103.89 599.32,62.74 "/>
   <polygon class="fil1" points="181.91,604.5 140.83,624.36 99.75,644.21 58.53,624.64 17.32,605.06 58.4,585.21 99.48,565.35 140.69,584.92 "/>
   <polygon class="fil0" points="89.31,1547.82 1.62,644.88 429.09,887.05 "/>
   <polygon class="fil1" points="91.14,1547.82 525.1,560.27 662.41,519.45 716.05,655.61 "/>
   <polygon class="fil1" points="1220.98,605.49 1179.9,625.34 1138.82,645.2 1097.61,625.63 1056.4,606.05 1097.48,586.2 1138.55,566.34 1179.77,585.91 "/>
   <polygon class="fil1" points="618.32,1034.37 638.04,1075.51 657.76,1116.66 638.04,1157.81 618.32,1198.95 598.61,1157.81 578.89,1116.66 598.61,1075.51 "/>
  </g>
 </g>
</svg>
